<?xml version="1.0" encoding="utf-8" standalone="no"?>
<!DOCTYPE svg PUBLIC "-//W3C//DTD SVG 1.1//EN"
  "http://www.w3.org/Graphics/SVG/1.1/DTD/svg11.dtd">
<svg xmlns:xlink="http://www.w3.org/1999/xlink" width="371.238125pt" height="252.198125pt" viewBox="0 0 371.238125 252.198125" xmlns="http://www.w3.org/2000/svg" version="1.1">
 <metadata>
  <rdf:RDF xmlns:dc="http://purl.org/dc/elements/1.1/" xmlns:cc="http://creativecommons.org/ns#" xmlns:rdf="http://www.w3.org/1999/02/22-rdf-syntax-ns#">
   <cc:Work>
    <dc:type rdf:resource="http://purl.org/dc/dcmitype/StillImage"/>
    <dc:date>2023-01-18T14:54:27.091763</dc:date>
    <dc:format>image/svg+xml</dc:format>
    <dc:creator>
     <cc:Agent>
      <dc:title>Matplotlib v3.6.2, https://matplotlib.org/</dc:title>
     </cc:Agent>
    </dc:creator>
   </cc:Work>
  </rdf:RDF>
 </metadata>
 <defs>
  <style type="text/css">*{stroke-linejoin: round; stroke-linecap: butt}</style>
 </defs>
 <g id="figure_1">
  <g id="patch_1">
   <path d="M 0 252.198125 
L 371.238125 252.198125 
L 371.238125 -0 
L 0 -0 
z
" style="fill: #ffffff"/>
  </g>
  <g id="axes_1">
   <g id="patch_2">
    <path d="M 13.398125 238.8 
L 370.518125 238.8 
L 370.518125 0.72 
L 13.398125 0.72 
z
" style="fill: #ffffff"/>
   </g>
   <g id="PathCollection_1">
    <defs>
     <path id="C0_0_307099f7e9" d="M 0 4.472136 
C 1.186024 4.472136 2.323632 4.000923 3.162278 3.162278 
C 4.000923 2.323632 4.472136 1.186024 4.472136 -0 
C 4.472136 -1.186024 4.000923 -2.323632 3.162278 -3.162278 
C 2.323632 -4.000923 1.186024 -4.472136 0 -4.472136 
C -1.186024 -4.472136 -2.323632 -4.000923 -3.162278 -3.162278 
C -4.000923 -2.323632 -4.472136 -1.186024 -4.472136 0 
C -4.472136 1.186024 -4.000923 2.323632 -3.162278 3.162278 
C -2.323632 4.000923 -1.186024 4.472136 0 4.472136 
z
"/>
    </defs>
    <g clip-path="url(#p93998d8a42)">
     <use xlink:href="#C0_0_307099f7e9" x="72.918125" y="60.24" style="fill: #ff4f00; stroke: #ff4f00"/>
    </g>
    <g clip-path="url(#p93998d8a42)">
     <use xlink:href="#C0_0_307099f7e9" x="293.142125" y="90" style="fill: #0040a9; stroke: #0040a9"/>
    </g>
    <g clip-path="url(#p93998d8a42)">
     <use xlink:href="#C0_0_307099f7e9" x="302.665325" y="191.184" style="fill: #850080; stroke: #850080"/>
    </g>
    <g clip-path="url(#p93998d8a42)">
     <use xlink:href="#C0_0_307099f7e9" x="90.774125" y="42.384" style="fill: #ff4f00; stroke: #ff4f00"/>
    </g>
    <g clip-path="url(#p93998d8a42)">
     <use xlink:href="#C0_0_307099f7e9" x="49.110125" y="198.3264" style="stroke: #000000"/>
    </g>
    <g clip-path="url(#p93998d8a42)">
     <use xlink:href="#C0_0_307099f7e9" x="316.950125" y="88.8096" style="fill: #0040a9; stroke: #0040a9"/>
    </g>
    <g clip-path="url(#p93998d8a42)">
     <use xlink:href="#C0_0_307099f7e9" x="49.110125" y="66.192" style="fill: #ff4f00; stroke: #ff4f00"/>
    </g>
    <g clip-path="url(#p93998d8a42)">
     <use xlink:href="#C0_0_307099f7e9" x="66.966125" y="174.5184" style="stroke: #000000"/>
    </g>
    <g clip-path="url(#p93998d8a42)">
     <use xlink:href="#C0_0_307099f7e9" x="285.999725" y="107.856" style="fill: #0040a9; stroke: #0040a9"/>
    </g>
    <g clip-path="url(#p93998d8a42)">
     <use xlink:href="#C0_0_307099f7e9" x="328.854125" y="184.0416" style="fill: #850080; stroke: #850080"/>
    </g>
    <g clip-path="url(#p93998d8a42)">
     <use xlink:href="#C0_0_307099f7e9" x="91.964525" y="67.3824" style="fill: #ff4f00; stroke: #ff4f00"/>
    </g>
    <g clip-path="url(#p93998d8a42)">
     <use xlink:href="#C0_0_307099f7e9" x="170.530925" y="118.5696" style="fill: #008507; stroke: #008507"/>
    </g>
    <g clip-path="url(#p93998d8a42)">
     <use xlink:href="#C0_0_307099f7e9" x="33.634925" y="218.5632" style="stroke: #000000"/>
    </g>
    <g clip-path="url(#p93998d8a42)">
     <use xlink:href="#C0_0_307099f7e9" x="340.758125" y="203.088" style="fill: #850080; stroke: #850080"/>
    </g>
    <g clip-path="url(#p93998d8a42)">
     <use xlink:href="#C0_0_307099f7e9" x="47.919725" y="41.1936" style="fill: #ff4f00; stroke: #ff4f00"/>
    </g>
    <g clip-path="url(#p93998d8a42)">
     <use xlink:href="#C0_0_307099f7e9" x="162.198125" y="139.9968" style="fill: #008507; stroke: #008507"/>
    </g>
    <g clip-path="url(#p93998d8a42)">
     <use xlink:href="#C0_0_307099f7e9" x="274.095725" y="93.5712" style="fill: #0040a9; stroke: #0040a9"/>
    </g>
   </g>
   <g id="patch_3">
    <path d="M 69.346925 82.2624 
C 79.291405 82.2624 88.829923 79.440269 95.861732 74.417548 
C 102.893541 69.394827 106.844525 62.5816 106.844525 55.4784 
C 106.844525 48.3752 102.893541 41.561973 95.861732 36.539252 
C 88.829923 31.516531 79.291405 28.6944 69.346925 28.6944 
C 59.402445 28.6944 49.863927 31.516531 42.832118 36.539252 
C 35.800309 41.561973 31.849325 48.3752 31.849325 55.4784 
C 31.849325 62.5816 35.800309 69.394827 42.832118 74.417548 
C 49.863927 79.440269 59.402445 82.2624 69.346925 82.2624 
L 69.346925 82.2624 
z
" clip-path="url(#p93998d8a42)" style="fill: none; stroke: #000000; stroke-width: 0.5; stroke-linejoin: miter"/>
   </g>
   <g id="patch_4">
    <path d="M 352.838478 202.457655 
C 354.145815 197.578605 352.370929 192.087152 347.904716 187.192725 
C 343.438504 182.298298 336.645612 178.400505 329.022096 176.35779 
C 321.39858 174.315075 313.566867 174.294217 307.2518 176.299809 
C 300.936733 178.305401 296.65391 182.173695 295.346572 187.052745 
C 294.039235 191.931795 295.814121 197.423248 300.280334 202.317675 
C 304.746546 207.212102 311.539438 211.109895 319.162954 213.15261 
C 326.78647 215.195325 334.618183 215.216183 340.93325 213.210591 
C 347.248317 211.204999 351.53114 207.336705 352.838478 202.457655 
L 352.838478 202.457655 
z
" clip-path="url(#p93998d8a42)" style="fill: none; stroke: #000000; stroke-width: 0.5; stroke-linejoin: miter"/>
   </g>
   <g id="patch_5">
    <path d="M 297.763598 113.199572 
C 306.301935 110.911731 314.004767 106.899973 319.175633 102.047842 
C 324.346499 97.19571 326.563221 91.89936 325.337592 87.325251 
C 324.111963 82.751141 319.54405 79.272728 312.639883 77.656092 
C 305.735716 76.039456 297.05899 76.416588 288.520652 78.704428 
C 279.982315 80.992269 272.279483 85.004027 267.108617 89.856158 
C 261.937751 94.70829 259.721029 100.00464 260.946658 104.578749 
C 262.172287 109.152859 266.7402 112.631272 273.644367 114.247908 
C 280.548534 115.864544 289.22526 115.487412 297.763598 113.199572 
L 297.763598 113.199572 
z
" clip-path="url(#p93998d8a42)" style="fill: none; stroke: #000000; stroke-width: 0.5; stroke-linejoin: miter"/>
   </g>
   <g id="patch_6">
    <path d="M 175.878359 107.208807 
C 173.683035 106.321838 170.637606 107.796976 167.412794 111.309337 
C 164.187982 114.821698 161.047077 120.084515 158.681828 125.938712 
C 156.316578 131.79291 154.920096 137.760519 154.799941 142.527243 
C 154.679786 147.293967 155.845767 150.470625 158.041091 151.357593 
C 160.236415 152.244562 163.281844 150.769424 166.506656 147.257063 
C 169.731468 143.744702 172.872373 138.481885 175.237622 132.627688 
C 177.602872 126.77349 178.999354 120.805881 179.119509 116.039157 
C 179.239664 111.272433 178.073683 108.095775 175.878359 107.208807 
L 175.878359 107.208807 
z
" clip-path="url(#p93998d8a42)" style="fill: none; stroke: #000000; stroke-width: 0.5; stroke-linejoin: miter"/>
   </g>
   <g id="patch_7">
    <path d="M 75.951445 164.30432 
C 73.712486 162.555053 68.862184 164.33655 62.468763 169.256455 
C 56.075342 174.17636 48.660796 181.832986 41.858093 190.540049 
C 35.05539 199.247113 29.419939 208.29372 26.192885 215.687462 
C 22.96583 223.081204 22.410646 228.218413 24.649605 229.96768 
C 26.888564 231.716947 31.738866 229.93545 38.132287 225.015545 
C 44.525708 220.09564 51.940254 212.439014 58.742957 203.731951 
C 65.54566 195.024887 71.181111 185.97828 74.408165 178.584538 
C 77.63522 171.190796 78.190404 166.053587 75.951445 164.30432 
L 75.951445 164.30432 
z
" clip-path="url(#p93998d8a42)" style="fill: none; stroke: #000000; stroke-width: 0.5; stroke-linejoin: miter"/>
   </g>
   <g id="matplotlib.axis_1">
    <g id="text_1">
     <!-- X -->
     <g transform="translate(188.533125 249.398437) scale(0.1 -0.1)">
      <defs>
       <path id="DejaVuSans-58" d="M 403 4666 
L 1081 4666 
L 2241 2931 
L 3406 4666 
L 4084 4666 
L 2584 2425 
L 4184 0 
L 3506 0 
L 2194 1984 
L 872 0 
L 191 0 
L 1856 2491 
L 403 4666 
z
" transform="scale(0.015625)"/>
      </defs>
      <use xlink:href="#DejaVuSans-58"/>
     </g>
    </g>
   </g>
   <g id="matplotlib.axis_2">
    <g id="text_2">
     <!-- Y -->
     <g transform="translate(8.318438 122.813906) rotate(-90) scale(0.1 -0.1)">
      <defs>
       <path id="DejaVuSans-59" d="M -13 4666 
L 666 4666 
L 1959 2747 
L 3244 4666 
L 3922 4666 
L 2272 2222 
L 2272 0 
L 1638 0 
L 1638 2222 
L -13 4666 
z
" transform="scale(0.015625)"/>
      </defs>
      <use xlink:href="#DejaVuSans-59"/>
     </g>
    </g>
   </g>
   <g id="patch_8">
    <path d="M 13.398125 238.8 
L 13.398125 0.72 
" style="fill: none; stroke: #000000; stroke-width: 0.8; stroke-linejoin: miter; stroke-linecap: square"/>
   </g>
   <g id="patch_9">
    <path d="M 370.518125 238.8 
L 370.518125 0.72 
" style="fill: none; stroke: #000000; stroke-width: 0.8; stroke-linejoin: miter; stroke-linecap: square"/>
   </g>
   <g id="patch_10">
    <path d="M 13.398125 238.8 
L 370.518125 238.8 
" style="fill: none; stroke: #000000; stroke-width: 0.8; stroke-linejoin: miter; stroke-linecap: square"/>
   </g>
   <g id="patch_11">
    <path d="M 13.398125 0.72 
L 370.518125 0.72 
" style="fill: none; stroke: #000000; stroke-width: 0.8; stroke-linejoin: miter; stroke-linecap: square"/>
   </g>
  </g>
 </g>
 <defs>
  <clipPath id="p93998d8a42">
   <rect x="13.398125" y="0.72" width="357.12" height="238.08"/>
  </clipPath>
 </defs>
</svg>
