<?xml version="1.0" encoding="utf-8" standalone="no"?>
<!DOCTYPE svg PUBLIC "-//W3C//DTD SVG 1.1//EN"
  "http://www.w3.org/Graphics/SVG/1.1/DTD/svg11.dtd">
<svg xmlns:xlink="http://www.w3.org/1999/xlink" width="371.238125pt" height="252.198125pt" viewBox="0 0 371.238125 252.198125" xmlns="http://www.w3.org/2000/svg" version="1.1">
 <metadata>
  <rdf:RDF xmlns:dc="http://purl.org/dc/elements/1.1/" xmlns:cc="http://creativecommons.org/ns#" xmlns:rdf="http://www.w3.org/1999/02/22-rdf-syntax-ns#">
   <cc:Work>
    <dc:type rdf:resource="http://purl.org/dc/dcmitype/StillImage"/>
    <dc:date>2023-01-07T12:52:50.194233</dc:date>
    <dc:format>image/svg+xml</dc:format>
    <dc:creator>
     <cc:Agent>
      <dc:title>Matplotlib v3.6.2, https://matplotlib.org/</dc:title>
     </cc:Agent>
    </dc:creator>
   </cc:Work>
  </rdf:RDF>
 </metadata>
 <defs>
  <style type="text/css">*{stroke-linejoin: round; stroke-linecap: butt}</style>
 </defs>
 <g id="figure_1">
  <g id="patch_1">
   <path d="M 0 252.198125 
L 371.238125 252.198125 
L 371.238125 -0 
L 0 -0 
z
" style="fill: #ffffff"/>
  </g>
  <g id="axes_1">
   <g id="patch_2">
    <path d="M 13.398125 238.8 
L 370.518125 238.8 
L 370.518125 0.72 
L 13.398125 0.72 
z
" style="fill: #ffffff"/>
   </g>
   <g id="PathCollection_1">
    <defs>
     <path id="C0_0_001642e67e" d="M 0 4.472136 
C 1.186024 4.472136 2.323632 4.000923 3.162278 3.162278 
C 4.000923 2.323632 4.472136 1.186024 4.472136 -0 
C 4.472136 -1.186024 4.000923 -2.323632 3.162278 -3.162278 
C 2.323632 -4.000923 1.186024 -4.472136 0 -4.472136 
C -1.186024 -4.472136 -2.323632 -4.000923 -3.162278 -3.162278 
C -4.000923 -2.323632 -4.472136 -1.186024 -4.472136 0 
C -4.472136 1.186024 -4.000923 2.323632 -3.162278 3.162278 
C -2.323632 4.000923 -1.186024 4.472136 0 4.472136 
z
"/>
    </defs>
    <g clip-path="url(#p1c3055b0e3)">
     <use xlink:href="#C0_0_001642e67e" x="72.918125" y="60.24" style="fill: #ff4f00; stroke: #ff4f00"/>
    </g>
    <g clip-path="url(#p1c3055b0e3)">
     <use xlink:href="#C0_0_001642e67e" x="293.142125" y="90" style="fill: #850080; stroke: #850080"/>
    </g>
    <g clip-path="url(#p1c3055b0e3)">
     <use xlink:href="#C0_0_001642e67e" x="302.665325" y="191.184" style="fill: #0040a9; stroke: #0040a9"/>
    </g>
    <g clip-path="url(#p1c3055b0e3)">
     <use xlink:href="#C0_0_001642e67e" x="90.774125" y="42.384" style="fill: #ff4f00; stroke: #ff4f00"/>
    </g>
    <g clip-path="url(#p1c3055b0e3)">
     <use xlink:href="#C0_0_001642e67e" x="49.110125" y="198.3264" style="stroke: #000000"/>
    </g>
    <g clip-path="url(#p1c3055b0e3)">
     <use xlink:href="#C0_0_001642e67e" x="316.950125" y="88.8096" style="fill: #850080; stroke: #850080"/>
    </g>
    <g clip-path="url(#p1c3055b0e3)">
     <use xlink:href="#C0_0_001642e67e" x="49.110125" y="66.192" style="fill: #ff4f00; stroke: #ff4f00"/>
    </g>
    <g clip-path="url(#p1c3055b0e3)">
     <use xlink:href="#C0_0_001642e67e" x="66.966125" y="174.5184" style="stroke: #000000"/>
    </g>
    <g clip-path="url(#p1c3055b0e3)">
     <use xlink:href="#C0_0_001642e67e" x="285.999725" y="107.856" style="fill: #850080; stroke: #850080"/>
    </g>
    <g clip-path="url(#p1c3055b0e3)">
     <use xlink:href="#C0_0_001642e67e" x="328.854125" y="184.0416" style="fill: #0040a9; stroke: #0040a9"/>
    </g>
    <g clip-path="url(#p1c3055b0e3)">
     <use xlink:href="#C0_0_001642e67e" x="91.964525" y="67.3824" style="fill: #ff4f00; stroke: #ff4f00"/>
    </g>
    <g clip-path="url(#p1c3055b0e3)">
     <use xlink:href="#C0_0_001642e67e" x="170.530925" y="118.5696" style="fill: #008507; stroke: #008507"/>
    </g>
    <g clip-path="url(#p1c3055b0e3)">
     <use xlink:href="#C0_0_001642e67e" x="33.634925" y="218.5632" style="stroke: #000000"/>
    </g>
    <g clip-path="url(#p1c3055b0e3)">
     <use xlink:href="#C0_0_001642e67e" x="340.758125" y="203.088" style="fill: #0040a9; stroke: #0040a9"/>
    </g>
    <g clip-path="url(#p1c3055b0e3)">
     <use xlink:href="#C0_0_001642e67e" x="47.919725" y="41.1936" style="fill: #ff4f00; stroke: #ff4f00"/>
    </g>
    <g clip-path="url(#p1c3055b0e3)">
     <use xlink:href="#C0_0_001642e67e" x="162.198125" y="139.9968" style="fill: #008507; stroke: #008507"/>
    </g>
    <g clip-path="url(#p1c3055b0e3)">
     <use xlink:href="#C0_0_001642e67e" x="274.095725" y="93.5712" style="fill: #850080; stroke: #850080"/>
    </g>
   </g>
   <g id="matplotlib.axis_1">
    <g id="text_1">
     <!-- X -->
     <g transform="translate(188.533125 249.398437) scale(0.1 -0.1)">
      <defs>
       <path id="DejaVuSans-58" d="M 403 4666 
L 1081 4666 
L 2241 2931 
L 3406 4666 
L 4084 4666 
L 2584 2425 
L 4184 0 
L 3506 0 
L 2194 1984 
L 872 0 
L 191 0 
L 1856 2491 
L 403 4666 
z
" transform="scale(0.015625)"/>
      </defs>
      <use xlink:href="#DejaVuSans-58"/>
     </g>
    </g>
   </g>
   <g id="matplotlib.axis_2">
    <g id="text_2">
     <!-- Y -->
     <g transform="translate(8.318438 122.813906) rotate(-90) scale(0.1 -0.1)">
      <defs>
       <path id="DejaVuSans-59" d="M -13 4666 
L 666 4666 
L 1959 2747 
L 3244 4666 
L 3922 4666 
L 2272 2222 
L 2272 0 
L 1638 0 
L 1638 2222 
L -13 4666 
z
" transform="scale(0.015625)"/>
      </defs>
      <use xlink:href="#DejaVuSans-59"/>
     </g>
    </g>
   </g>
   <g id="patch_3">
    <path d="M 13.398125 238.8 
L 13.398125 0.72 
" style="fill: none; stroke: #000000; stroke-width: 0.8; stroke-linejoin: miter; stroke-linecap: square"/>
   </g>
   <g id="patch_4">
    <path d="M 370.518125 238.8 
L 370.518125 0.72 
" style="fill: none; stroke: #000000; stroke-width: 0.8; stroke-linejoin: miter; stroke-linecap: square"/>
   </g>
   <g id="patch_5">
    <path d="M 13.398125 238.8 
L 370.518125 238.8 
" style="fill: none; stroke: #000000; stroke-width: 0.8; stroke-linejoin: miter; stroke-linecap: square"/>
   </g>
   <g id="patch_6">
    <path d="M 13.398125 0.72 
L 370.518125 0.72 
" style="fill: none; stroke: #000000; stroke-width: 0.8; stroke-linejoin: miter; stroke-linecap: square"/>
   </g>
  </g>
 </g>
 <defs>
  <clipPath id="p1c3055b0e3">
   <rect x="13.398125" y="0.72" width="357.12" height="238.08"/>
  </clipPath>
 </defs>
</svg>
