<?xml version="1.0" encoding="utf-8" ?>
<svg baseProfile="full" height="1000px" version="1.1" width="1000px" xmlns="http://www.w3.org/2000/svg" xmlns:ev="http://www.w3.org/2001/xml-events" xmlns:xlink="http://www.w3.org/1999/xlink"><defs><clipPath id="border_clip"><rect height="1000" width="1000" x="0" y="0" /></clipPath></defs><polygon clip-path="url(#border_clip)" fill="#850080" fill-rule="evenodd" points="500.5,500.5 527.5398192719242,498.5660739573772 554.0291857998716,492.8036649867545 579.4288524703584,483.3300791173585 603.2217553165635,470.3381712379244 624.9235394496042,454.0924191273091 644.0924191273091,434.92353944960416 660.3381712379244,413.22175531656353 673.3300791173584,389.42885247035844 682.8036649867545,364.0291857998717 688.5660739573772,337.5398192719242 690.5,310.50000000000006" stroke-width="0" /><polygon clip-path="url(#border_clip)" fill="#e400dc" fill-rule="evenodd" points="690.5,310.50000000000006 663.9924808748498,316.17832070479056 638.5628793664732,325.57125758959046 614.728868828666,338.4875975464183 592.975640984367,354.66440114140175 573.7460288213573,373.77235530339635 557.4314917896536,395.4224771884533 544.3641468159814,419.1740327487887 534.8100073608938,444.54350880702435 528.9635681518332,471.0144559901422 526.9438458313577,498.04800214940195 528.7919561215141,525.0938222433107" stroke-width="0" /><polygon clip-path="url(#border_clip)" fill="#850080" fill-rule="evenodd" points="528.7919561215141,525.0938222433107 542.3120987715129,548.4258236976669 559.0151158773393,569.5962221045197 578.5609821782426,588.1740492026928 600.5518002019602,603.7811140064969 624.5399003098115,616.0997016835848 650.0369539595692,624.8790413127244 676.523914666355,629.9404108565913 703.4615842922663,631.1807754270567 730.3015895655435,628.574884778382 756.4975453790066,622.1757873294064 781.516177615192,612.1137502507174" stroke-width="0" /><polygon clip-path="url(#border_clip)" fill="#e400dc" fill-rule="evenodd" points="781.516177615192,612.1137502507174 764.8804250700596,590.8904544086593 745.3936105836738,572.2506955498225 723.4524295036447,556.5739254119474 699.5035410036204,544.179277826969 674.0344753905702,535.3190720765056 647.5637093936556,530.1736763989131 620.6301114731881,528.8478362120915 593.781972012746,531.3685417988371 567.565841708103,537.6844788625183 542.5154053711849,547.6670731381771 519.1406176463184,561.1131077937857" stroke-width="0" /><polygon clip-path="url(#border_clip)" fill="#850080" fill-rule="evenodd" points="519.1406176463184,561.1131077937857 504.17639103916935,583.3745955780853 492.5326187159933,607.5391250046365 484.4463343034236,633.1147759390635 480.08215123318155,659.5809018824281 479.52891168731253,686.3987288325281 482.7978780275593,713.0223231688861 489.82250352615495,738.9097052869201 500.4597870652952,763.533882739752 514.4931842275157,786.3935782847063 531.6370155155694,807.0234344424059 551.5422819631583,825.0034868330725" stroke-width="0" /><polygon clip-path="url(#border_clip)" fill="#e400dc" fill-rule="evenodd" points="551.5422819631583,825.0034868330725 563.2626774587054,800.8760284972142 571.4300808965096,775.326166708845 575.8782274954236,748.8740229742591 576.5165658180892,722.0580866582093 573.3321011370726,695.4242528933158 566.3896599700415,669.5147097293977 555.8305703988094,644.85690074832 541.869785037147,621.9527878336879 524.7915052154372,601.2686326744362 504.9433954611578,583.2255050214292 482.7295060516841,568.1907109215988" stroke-width="0" /><polygon clip-path="url(#border_clip)" fill="#850080" fill-rule="evenodd" points="482.7295060516841,568.1907109215988 456.30244934964105,564.5193798553069 429.62189709320853,564.6463799462376 403.23098838596843,568.5691258387778 377.6669660241041,576.2077617388204 353.4502397823502,587.4067870474474 331.07379237171716,601.9382219046972 310.99314373313985,619.5062482020741 293.6170779650908,639.7532315861675 279.2993216581717,662.267001862756 268.3313430417919,686.5892435933605 260.9364185315423,712.2248260758988" stroke-width="0" /><polygon clip-path="url(#border_clip)" fill="#e400dc" fill-rule="evenodd" points="260.9364185315423,712.2248260758988 287.6172394635454,712.182492570156 314.02046342300423,708.3435132425252 339.60859691071477,700.7860386414148 363.86073931895066,689.6639171557465 386.2831869656838,675.2035631054187 406.419483477826,657.6993475986783 423.8597119266741,637.5076059852536 438.2488395544753,615.0393838962192 449.29394521754506,590.7520695403061 456.7701824160378,565.1400825989696 460.52535652028,538.724809267464" stroke-width="0" /><polygon clip-path="url(#border_clip)" fill="#850080" fill-rule="evenodd" points="460.52535652028,538.724809267464 452.28457315881144,513.4985474959719 440.5375977254848,489.7018384473805 425.5235647646428,467.8191144938768 407.5481166904725,448.2958447905893 386.9771817888523,431.5294668082163 364.22952497270165,417.8612956522375 339.76822293597206,407.5695758716379 314.0912372475614,400.86381720228144 287.7212772897735,397.880529552865 261.1951594026641,398.68044405683975 235.0528788514075,403.24727676166754" stroke-width="0" /><polygon clip-path="url(#border_clip)" fill="#e400dc" fill-rule="evenodd" points="235.0528788514075,403.24727676166754 246.72428055205555,427.0811429129365 261.6687970189075,449.01140102693245 279.582200993125,468.59161429009646 300.0998272277842,485.4231860250629 322.8039960206956,499.1634739695524 347.23251596865157,509.5327654847337 372.8880928515461,516.3199716979251 399.24845310861764,519.3869246633125 425.7769758220339,518.6711900628825 451.93361677129184,514.1873381890919 477.18590217618834,506.02664733572976" stroke-width="0" /><polygon clip-path="url(#border_clip)" fill="#850080" fill-rule="evenodd" points="477.18590217618834,506.02664733572976 496.14411757419305,487.6606904542329 512.2956174916111,466.78363717394944 525.3116039672032,443.82048409521593 534.9271090513319,419.2386947944502 540.9463887893111,393.5386836137892 543.246908003845,367.2436286681591 541.7818347578752,340.8888214475762 536.5809937177675,315.0107698260635 527.7502590091111,290.1362763084966 515.4693989248384,266.7717138507773 499.9884163611893,245.39271756671062" stroke-width="0" /><polygon clip-path="url(#border_clip)" fill="#e400dc" fill-rule="evenodd" points="499.9884163611893,245.39271756671062 483.77074818351724,266.21841184395066 470.6819577969417,289.1401454054951 460.9884952287787,313.691297856852 454.88769142327834,339.37207853378897 452.50374115265527,365.65970079897954 453.88517476967456,392.019024470347 459.00387026961926,417.91344973195476 467.75562577320926,442.8158407588326 479.9622807763704,466.2192566822389 495.3753429843244,487.6472714438514 513.6810468981184,506.6636724564156" stroke-width="0" /><polygon clip-path="url(#border_clip)" fill="#850080" fill-rule="evenodd" points="513.6810468981184,506.6636724564156 538.3648431562723,515.6035119205347 564.0696657671385,520.9394862366433 590.2722386689472,522.5629703553448 616.439153039398,520.4409148217236 642.0377259610582,514.6165185669417 666.5468443094313,505.20834950257466 689.4675731134053,492.40793081985373 710.3333124324549,476.47584212979996 728.7192959858676,457.73641481379286 744.2512381692941,436.5711295719406 756.6129534303025,413.41085057612486" stroke-width="0" /><polygon clip-path="url(#border_clip)" fill="#e400dc" fill-rule="evenodd" points="756.6129534303025,413.41085057612486 730.9251930002234,407.9933334838456 704.7279038638001,406.28670837536083 678.5543872811068,408.32571721637873 652.937460571578,414.0688516669122 628.3986104899035,423.3991980713805 605.437377259546,436.12681748348575 584.5211853743468,451.99261227542104 566.075828183772,470.67360061839656 550.4767999682043,491.7894914612711 538.0416519582297,514.9104261596844 529.0235279073257,539.5657291584469" stroke-width="0" /><polygon clip-path="url(#border_clip)" fill="#850080" fill-rule="evenodd" points="529.0235279073257,539.5657291584469 531.7939784210544,565.5284730359698 538.2311134392735,590.8326773991995 548.2038914561766,614.9632216186002 561.5092954704564,637.428877400608 577.876465825999,657.7723087791028 596.9722141333872,675.57938215683 618.4078060246733,690.4875968711781 641.7468746640932,702.1934646623042 666.5143039184643,710.458687818916 692.2059003515359,715.1150102324805 718.2986571483765,716.0676426063822" stroke-width="0" /><polygon clip-path="url(#border_clip)" fill="#e400dc" fill-rule="evenodd" points="718.2986571483765,716.0676426063822 711.9418528937354,690.7431385566074 702.0456990424569,666.5810690125741 688.811652748802,644.073304032544 672.5091210314713,623.678036804476 653.4699764236104,605.8104561540399 632.0818010050764,590.8342944974307 608.7799963489857,579.0544232982933 584.0389200012809,570.7106467638985 558.3622289290287,565.9728201230223 532.2726265169974,564.9373918633089 506.3012218340958,567.6254403181978" stroke-width="0" /><polygon clip-path="url(#border_clip)" fill="#850080" fill-rule="evenodd" points="506.3012218340958,567.6254403181978 484.3014257805081,581.4210226499627 464.4888719980904,598.2070832625889 447.26688694716563,617.6419063690048 432.9860605792669,639.3298550161655 421.93710933674214,662.8294251124943 414.3449580043449,687.6622331779937 410.3641608892463,713.3227548523553 410.07575554103886,739.2886159131227 413.4856130609197,765.0312263084588 420.5243185830011,790.0265407262727 431.04858436080417,813.7657266455524" stroke-width="0" /><polygon clip-path="url(#border_clip)" fill="#e400dc" fill-rule="evenodd" points="431.04858436080417,813.7657266455524 450.9143059388373,797.0426221354434 468.1978772014278,777.6625477629619 482.54745447937296,756.0200259548122 493.67092176005775,732.5556360431292 501.341837327078,707.747045340802 505.40404346058307,682.0992852124618 505.77484535812994,656.1344700922896 502.4466945623888,630.3811687397879 495.4873426259668,605.3636441041056 485.0384618851756,581.5911808422414 471.3127614198139,559.5477177520842" stroke-width="0" /><polygon clip-path="url(#border_clip)" fill="#850080" fill-rule="evenodd" points="471.3127614198139,559.5477177520842 449.3904162587234,545.8974332233454 425.74857092686955,535.5059639151959 400.8685052177569,528.5848501762268 375.2567055210382,525.2749859233195 349.4345542202075,525.643750447803 323.92771585081437,529.6836367673877 299.2554360864119,537.3124044466772 275.91997139402395,548.3747537752703 254.39636454086417,562.6454872220181 235.12277409350628,579.8340938073416 218.49155477301338,599.5906630690118" stroke-width="0" /><polygon clip-path="url(#border_clip)" fill="#e400dc" fill-rule="evenodd" points="218.49155477301338,599.5906630690118 242.1003056048243,610.0571032106731 266.95828313023264,617.0571345265892 292.55945061130865,620.4482565655915 318.38264210580815,620.1614358621543 343.902171902838,616.2025112586772 368.5985359679775,608.6520750434909 391.96898754729335,597.6638323242767 413.53777164144776,583.4614720353223 432.8658100055207,566.3341132758861 449.55963951587967,546.6304196790861 463.2794219447227,524.7515016257929" stroke-width="0" /><polygon clip-path="url(#border_clip)" fill="#850080" fill-rule="evenodd" points="463.2794219447227,524.7515016257929 465.9234040314985,499.20585767539785 464.9049500055509,473.54395366356397 460.2447926538693,448.28819195315197 452.0377993413499,423.9527070209833 440.4510407848212,401.0328991625336 425.7203899750417,379.995349570533 408.14572048280945,361.2683220873913 388.0848018978246,345.23304498837757 365.9460166715654,332.21595027330716 342.180046628254,322.4820284523776 317.2706983825741,316.22943410355043" stroke-width="0" /><polygon clip-path="url(#border_clip)" fill="#e400dc" fill-rule="evenodd" points="317.2706983825741,316.22943410355043 318.2077138323135,341.89444078896736 322.78770309155715,367.1648635100212 330.9174307865852,391.5262693339928 342.4313991057257,414.48273029079917 357.0952168575435,435.56691903632634 374.6103709995702,454.3496222894949 394.6203035030076,470.4484783769137 416.7176698459661,483.53576101391025 440.45263137324537,493.3450508666017 465.342012714127,499.6766590812434 490.87913783955935,502.4016923734355" stroke-width="0" /><polygon clip-path="url(#border_clip)" fill="#850080" fill-rule="evenodd" points="490.87913783955935,502.4016923734355 514.8644597785726,493.62862604130606 537.3571082080073,481.53138966203727 557.8991976692818,466.35624808276214 576.072550459459,448.41212342454 591.5072095233525,428.06430631883006 603.8889697123026,405.7270196436454 612.9657740949102,381.85498614027733 618.5528451092878,356.9341715695946 620.536446101365,331.4718918505615 618.8761966751758,305.9864855711064 613.6058947212738,280.9967621092361" stroke-width="0" /><polygon clip-path="url(#border_clip)" fill="#e400dc" fill-rule="evenodd" points="613.6058947212738,280.9967621092361 591.0749711329531,293.0225611946736 570.4848295118036,308.13243973181136 552.2546257641663,326.0188041669247 536.7554742667771,346.31753970013045 524.3028930482607,368.615422612692 515.1503807519472,392.458532310294 509.4842561345236,417.36149183734375 507.4198651534466,442.81734875207553 508.9992328558789,468.30789521633494 514.1902078699194,493.31421721277536 522.8871169138179,517.327258137827" stroke-width="0" /><polygon clip-path="url(#border_clip)" fill="#850080" fill-rule="evenodd" points="522.8871169138179,517.327258137827 541.1839784286093,534.9403137954233 561.8012034424851,549.7701790549681 584.3190847093299,561.514960625577 608.2792231027581,569.9355686236258 633.1938593004131,574.8605837533022 658.5558031571882,576.1897469091369 683.8487586339659,573.8960001622671 708.5578340960997,568.0260375818398 732.1800240222699,558.6993546784181 754.2344487463503,546.1058158199833 774.2721437806675,530.5017891409259" stroke-width="0" /><polygon clip-path="url(#border_clip)" fill="#e400dc" fill-rule="evenodd" points="774.2721437806675,530.5017891409259 753.7020824911333,515.6065734850907 731.2215845588413,503.7903945931961 707.2882880932907,495.29379579243493 682.3894059925922,490.28974333222317 657.0318076938693,488.88010529015503 631.7317007732092,491.09357783170657 607.0041224480328,496.8851010390596 583.3524549045936,506.13677620108604 561.2581778882989,518.6602658911152 541.1710671645669,534.2006279738199 523.500038381289,552.4415054919" stroke-width="0" /><polygon clip-path="url(#border_clip)" fill="#850080" fill-rule="evenodd" points="523.500038381289,552.4415054919 515.734219665993,576.47190611914 511.4673283667406,601.3629031514982 510.7862260856864,626.6077876691038 513.7047781011356,651.6926466234136 520.163571110463,676.1068246248774 530.0311227136192,699.3533194140612 543.1065580156334,720.9588993944121 559.123698860198,740.4837372628779 577.7564824493379,757.5303636254395 598.6255990416887,771.7517583277661 621.3062136049928,782.8584147848343" stroke-width="0" /><polygon clip-path="url(#border_clip)" fill="#e400dc" fill-rule="evenodd" points="621.3062136049928,782.8584147848343 625.6520705337805,757.9810832925097 626.4132794972402,732.7384872386477 623.5743444760213,707.6444930852692 617.1930580003434,683.2099421882335 607.3993246607406,659.9322515403783 594.3925166252126,638.2852877959771 578.4374149968255,618.7097207121775 559.8588196340198,601.6040523835318 539.0349371621375,587.3165048885371 516.3896817771878,576.1379314923072 492.3840455752843,568.2958957128452" stroke-width="0" /><polygon clip-path="url(#border_clip)" fill="#850080" fill-rule="evenodd" points="492.3840455752843,568.2958957128452 467.5226118515146,571.8301772227202 443.4172123773158,578.866635762478 420.5585635717508,589.2620293277201 399.4120016056012,602.8047376832976 380.4080094988487,619.2190703410369 363.93345372779913,638.1708788230528 350.32370873925544,659.2743589611543 339.85582969392067,682.0999047571408 332.74291242228753,706.1828539220446 329.1297554080469,731.0329470603585 329.0899121085242,756.1443079375376" stroke-width="0" /><polygon clip-path="url(#border_clip)" fill="#e400dc" fill-rule="evenodd" points="329.0899121085242,756.1443079375376 353.21751915091295,749.1843789867145 376.10904077971685,738.861575583063 397.2984716282705,725.3860402353746 416.3544559897699,709.0320959830933 432.88906897553613,690.1326619703149 446.5657135470652,669.0724761720724 457.10597266106686,646.2802632386571 464.2952770375774,622.2200068980792 467.9872731717329,597.3815045853829 468.10680266907946,572.2703965793291 464.65143225374584,547.3978726244654" stroke-width="0" /><polygon clip-path="url(#border_clip)" fill="#850080" fill-rule="evenodd" points="464.65143225374584,547.3978726244654 450.6562781714571,526.7200500358599 433.86081360083915,508.24441595607885 414.60694576642953,492.3470810156577 393.286627893767,479.3516691098551 370.33388017201935,469.5227293493999 346.21595435454276,463.06035060349336 321.4238218606263,460.09608826744073 296.46217901323985,460.69028617417734 271.83917287732254,464.8308481678473 248.05605685091538,472.4334843466543 225.59698659147313,483.3434269621901" stroke-width="0" /><polygon clip-path="url(#border_clip)" fill="#e400dc" fill-rule="evenodd" points="225.59698659147313,483.3434269621901 242.3337374870402,501.87226541074324 261.5370610380901,517.8306190033461 282.8160329549355,530.8936216809449 305.7374747328373,540.7953483796125 329.834771917177,547.3342284979859 354.6173730281483,550.3771492934284 379.5807757742516,549.8621656736034 404.2167972640853,545.7997612199207 428.02391914453557,538.27263477205 450.5174970681867,527.4340169180299 471.2396266546353,513.5045506613754" stroke-width="0" /><polygon clip-path="url(#border_clip)" fill="#850080" fill-rule="evenodd" points="471.2396266546353,513.5045506613754 483.61851570265577,491.98490481943514 492.80884059135735,468.9225983505268 498.62351280871457,444.7871133081575 500.94416239651196,420.06977856679845 499.72354762134285,395.27376778287646 494.98651668006727,370.90385623016175 486.82950186218045,347.4561450308461 475.4185564664863,325.40796196733214 460.98597443479184,305.2081444650835 443.8255615171329,287.26790255698256 424.28665423396853,271.95244783289274" stroke-width="0" /><polygon clip-path="url(#border_clip)" fill="#e400dc" fill-rule="evenodd" points="424.28665423396853,271.95244783289274 415.02319152660436,294.9854743360471 409.13195895453157,319.10238603733023 406.73288502400584,343.8122321619343 407.87480796189465,368.6119915000743 412.53448151021644,392.9968124682259 420.6170481529163,416.47029043149445 431.95797014134627,438.55457307046834 446.32637900834027,458.80008807643014 463.4297753844359,476.79469514710263 482.9199834415381,492.1720759746886 504.4002387487229,504.6191914302427" stroke-width="0" /><polyline clip-path="url(#border_clip)" fill="none" points="500.5,500.5 527.5398192719242,498.5660739573772 554.0291857998716,492.8036649867545 579.4288524703584,483.3300791173585 603.2217553165635,470.3381712379244 624.9235394496042,454.0924191273091 644.0924191273091,434.92353944960416 660.3381712379244,413.22175531656353 673.3300791173584,389.42885247035844 682.8036649867545,364.0291857998717 688.5660739573772,337.5398192719242 690.5,310.50000000000006" stroke="#850080" stroke-linecap="round" stroke-width="1" /><polyline clip-path="url(#border_clip)" fill="none" points="690.5,310.50000000000006 663.9924808748498,316.17832070479056 638.5628793664732,325.57125758959046 614.728868828666,338.4875975464183 592.975640984367,354.66440114140175 573.7460288213573,373.77235530339635 557.4314917896536,395.4224771884533 544.3641468159814,419.1740327487887 534.8100073608938,444.54350880702435 528.9635681518332,471.0144559901422 526.9438458313577,498.04800214940195 528.7919561215141,525.0938222433107" stroke="#e400dc" stroke-linecap="round" stroke-width="1" /><polyline clip-path="url(#border_clip)" fill="none" points="528.7919561215141,525.0938222433107 542.3120987715129,548.4258236976669 559.0151158773393,569.5962221045197 578.5609821782426,588.1740492026928 600.5518002019602,603.7811140064969 624.5399003098115,616.0997016835848 650.0369539595692,624.8790413127244 676.523914666355,629.9404108565913 703.4615842922663,631.1807754270567 730.3015895655435,628.574884778382 756.4975453790066,622.1757873294064 781.516177615192,612.1137502507174" stroke="#850080" stroke-linecap="round" stroke-width="1" /><polyline clip-path="url(#border_clip)" fill="none" points="781.516177615192,612.1137502507174 764.8804250700596,590.8904544086593 745.3936105836738,572.2506955498225 723.4524295036447,556.5739254119474 699.5035410036204,544.179277826969 674.0344753905702,535.3190720765056 647.5637093936556,530.1736763989131 620.6301114731881,528.8478362120915 593.781972012746,531.3685417988371 567.565841708103,537.6844788625183 542.5154053711849,547.6670731381771 519.1406176463184,561.1131077937857" stroke="#e400dc" stroke-linecap="round" stroke-width="1" /><polyline clip-path="url(#border_clip)" fill="none" points="519.1406176463184,561.1131077937857 504.17639103916935,583.3745955780853 492.5326187159933,607.5391250046365 484.4463343034236,633.1147759390635 480.08215123318155,659.5809018824281 479.52891168731253,686.3987288325281 482.7978780275593,713.0223231688861 489.82250352615495,738.9097052869201 500.4597870652952,763.533882739752 514.4931842275157,786.3935782847063 531.6370155155694,807.0234344424059 551.5422819631583,825.0034868330725" stroke="#850080" stroke-linecap="round" stroke-width="1" /><polyline clip-path="url(#border_clip)" fill="none" points="551.5422819631583,825.0034868330725 563.2626774587054,800.8760284972142 571.4300808965096,775.326166708845 575.8782274954236,748.8740229742591 576.5165658180892,722.0580866582093 573.3321011370726,695.4242528933158 566.3896599700415,669.5147097293977 555.8305703988094,644.85690074832 541.869785037147,621.9527878336879 524.7915052154372,601.2686326744362 504.9433954611578,583.2255050214292 482.7295060516841,568.1907109215988" stroke="#e400dc" stroke-linecap="round" stroke-width="1" /><polyline clip-path="url(#border_clip)" fill="none" points="482.7295060516841,568.1907109215988 456.30244934964105,564.5193798553069 429.62189709320853,564.6463799462376 403.23098838596843,568.5691258387778 377.6669660241041,576.2077617388204 353.4502397823502,587.4067870474474 331.07379237171716,601.9382219046972 310.99314373313985,619.5062482020741 293.6170779650908,639.7532315861675 279.2993216581717,662.267001862756 268.3313430417919,686.5892435933605 260.9364185315423,712.2248260758988" stroke="#850080" stroke-linecap="round" stroke-width="1" /><polyline clip-path="url(#border_clip)" fill="none" points="260.9364185315423,712.2248260758988 287.6172394635454,712.182492570156 314.02046342300423,708.3435132425252 339.60859691071477,700.7860386414148 363.86073931895066,689.6639171557465 386.2831869656838,675.2035631054187 406.419483477826,657.6993475986783 423.8597119266741,637.5076059852536 438.2488395544753,615.0393838962192 449.29394521754506,590.7520695403061 456.7701824160378,565.1400825989696 460.52535652028,538.724809267464" stroke="#e400dc" stroke-linecap="round" stroke-width="1" /><polyline clip-path="url(#border_clip)" fill="none" points="460.52535652028,538.724809267464 452.28457315881144,513.4985474959719 440.5375977254848,489.7018384473805 425.5235647646428,467.8191144938768 407.5481166904725,448.2958447905893 386.9771817888523,431.5294668082163 364.22952497270165,417.8612956522375 339.76822293597206,407.5695758716379 314.0912372475614,400.86381720228144 287.7212772897735,397.880529552865 261.1951594026641,398.68044405683975 235.0528788514075,403.24727676166754" stroke="#850080" stroke-linecap="round" stroke-width="1" /><polyline clip-path="url(#border_clip)" fill="none" points="235.0528788514075,403.24727676166754 246.72428055205555,427.0811429129365 261.6687970189075,449.01140102693245 279.582200993125,468.59161429009646 300.0998272277842,485.4231860250629 322.8039960206956,499.1634739695524 347.23251596865157,509.5327654847337 372.8880928515461,516.3199716979251 399.24845310861764,519.3869246633125 425.7769758220339,518.6711900628825 451.93361677129184,514.1873381890919 477.18590217618834,506.02664733572976" stroke="#e400dc" stroke-linecap="round" stroke-width="1" /><polyline clip-path="url(#border_clip)" fill="none" points="477.18590217618834,506.02664733572976 496.14411757419305,487.6606904542329 512.2956174916111,466.78363717394944 525.3116039672032,443.82048409521593 534.9271090513319,419.2386947944502 540.9463887893111,393.5386836137892 543.246908003845,367.2436286681591 541.7818347578752,340.8888214475762 536.5809937177675,315.0107698260635 527.7502590091111,290.1362763084966 515.4693989248384,266.7717138507773 499.9884163611893,245.39271756671062" stroke="#850080" stroke-linecap="round" stroke-width="1" /><polyline clip-path="url(#border_clip)" fill="none" points="499.9884163611893,245.39271756671062 483.77074818351724,266.21841184395066 470.6819577969417,289.1401454054951 460.9884952287787,313.691297856852 454.88769142327834,339.37207853378897 452.50374115265527,365.65970079897954 453.88517476967456,392.019024470347 459.00387026961926,417.91344973195476 467.75562577320926,442.8158407588326 479.9622807763704,466.2192566822389 495.3753429843244,487.6472714438514 513.6810468981184,506.6636724564156" stroke="#e400dc" stroke-linecap="round" stroke-width="1" /><polyline clip-path="url(#border_clip)" fill="none" points="513.6810468981184,506.6636724564156 538.3648431562723,515.6035119205347 564.0696657671385,520.9394862366433 590.2722386689472,522.5629703553448 616.439153039398,520.4409148217236 642.0377259610582,514.6165185669417 666.5468443094313,505.20834950257466 689.4675731134053,492.40793081985373 710.3333124324549,476.47584212979996 728.7192959858676,457.73641481379286 744.2512381692941,436.5711295719406 756.6129534303025,413.41085057612486" stroke="#850080" stroke-linecap="round" stroke-width="1" /><polyline clip-path="url(#border_clip)" fill="none" points="756.6129534303025,413.41085057612486 730.9251930002234,407.9933334838456 704.7279038638001,406.28670837536083 678.5543872811068,408.32571721637873 652.937460571578,414.0688516669122 628.3986104899035,423.3991980713805 605.437377259546,436.12681748348575 584.5211853743468,451.99261227542104 566.075828183772,470.67360061839656 550.4767999682043,491.7894914612711 538.0416519582297,514.9104261596844 529.0235279073257,539.5657291584469" stroke="#e400dc" stroke-linecap="round" stroke-width="1" /><polyline clip-path="url(#border_clip)" fill="none" points="529.0235279073257,539.5657291584469 531.7939784210544,565.5284730359698 538.2311134392735,590.8326773991995 548.2038914561766,614.9632216186002 561.5092954704564,637.428877400608 577.876465825999,657.7723087791028 596.9722141333872,675.57938215683 618.4078060246733,690.4875968711781 641.7468746640932,702.1934646623042 666.5143039184643,710.458687818916 692.2059003515359,715.1150102324805 718.2986571483765,716.0676426063822" stroke="#850080" stroke-linecap="round" stroke-width="1" /><polyline clip-path="url(#border_clip)" fill="none" points="718.2986571483765,716.0676426063822 711.9418528937354,690.7431385566074 702.0456990424569,666.5810690125741 688.811652748802,644.073304032544 672.5091210314713,623.678036804476 653.4699764236104,605.8104561540399 632.0818010050764,590.8342944974307 608.7799963489857,579.0544232982933 584.0389200012809,570.7106467638985 558.3622289290287,565.9728201230223 532.2726265169974,564.9373918633089 506.3012218340958,567.6254403181978" stroke="#e400dc" stroke-linecap="round" stroke-width="1" /><polyline clip-path="url(#border_clip)" fill="none" points="506.3012218340958,567.6254403181978 484.3014257805081,581.4210226499627 464.4888719980904,598.2070832625889 447.26688694716563,617.6419063690048 432.9860605792669,639.3298550161655 421.93710933674214,662.8294251124943 414.3449580043449,687.6622331779937 410.3641608892463,713.3227548523553 410.07575554103886,739.2886159131227 413.4856130609197,765.0312263084588 420.5243185830011,790.0265407262727 431.04858436080417,813.7657266455524" stroke="#850080" stroke-linecap="round" stroke-width="1" /><polyline clip-path="url(#border_clip)" fill="none" points="431.04858436080417,813.7657266455524 450.9143059388373,797.0426221354434 468.1978772014278,777.6625477629619 482.54745447937296,756.0200259548122 493.67092176005775,732.5556360431292 501.341837327078,707.747045340802 505.40404346058307,682.0992852124618 505.77484535812994,656.1344700922896 502.4466945623888,630.3811687397879 495.4873426259668,605.3636441041056 485.0384618851756,581.5911808422414 471.3127614198139,559.5477177520842" stroke="#e400dc" stroke-linecap="round" stroke-width="1" /><polyline clip-path="url(#border_clip)" fill="none" points="471.3127614198139,559.5477177520842 449.3904162587234,545.8974332233454 425.74857092686955,535.5059639151959 400.8685052177569,528.5848501762268 375.2567055210382,525.2749859233195 349.4345542202075,525.643750447803 323.92771585081437,529.6836367673877 299.2554360864119,537.3124044466772 275.91997139402395,548.3747537752703 254.39636454086417,562.6454872220181 235.12277409350628,579.8340938073416 218.49155477301338,599.5906630690118" stroke="#850080" stroke-linecap="round" stroke-width="1" /><polyline clip-path="url(#border_clip)" fill="none" points="218.49155477301338,599.5906630690118 242.1003056048243,610.0571032106731 266.95828313023264,617.0571345265892 292.55945061130865,620.4482565655915 318.38264210580815,620.1614358621543 343.902171902838,616.2025112586772 368.5985359679775,608.6520750434909 391.96898754729335,597.6638323242767 413.53777164144776,583.4614720353223 432.8658100055207,566.3341132758861 449.55963951587967,546.6304196790861 463.2794219447227,524.7515016257929" stroke="#e400dc" stroke-linecap="round" stroke-width="1" /><polyline clip-path="url(#border_clip)" fill="none" points="463.2794219447227,524.7515016257929 465.9234040314985,499.20585767539785 464.9049500055509,473.54395366356397 460.2447926538693,448.28819195315197 452.0377993413499,423.9527070209833 440.4510407848212,401.0328991625336 425.7203899750417,379.995349570533 408.14572048280945,361.2683220873913 388.0848018978246,345.23304498837757 365.9460166715654,332.21595027330716 342.180046628254,322.4820284523776 317.2706983825741,316.22943410355043" stroke="#850080" stroke-linecap="round" stroke-width="1" /><polyline clip-path="url(#border_clip)" fill="none" points="317.2706983825741,316.22943410355043 318.2077138323135,341.89444078896736 322.78770309155715,367.1648635100212 330.9174307865852,391.5262693339928 342.4313991057257,414.48273029079917 357.0952168575435,435.56691903632634 374.6103709995702,454.3496222894949 394.6203035030076,470.4484783769137 416.7176698459661,483.53576101391025 440.45263137324537,493.3450508666017 465.342012714127,499.6766590812434 490.87913783955935,502.4016923734355" stroke="#e400dc" stroke-linecap="round" stroke-width="1" /><polyline clip-path="url(#border_clip)" fill="none" points="490.87913783955935,502.4016923734355 514.8644597785726,493.62862604130606 537.3571082080073,481.53138966203727 557.8991976692818,466.35624808276214 576.072550459459,448.41212342454 591.5072095233525,428.06430631883006 603.8889697123026,405.7270196436454 612.9657740949102,381.85498614027733 618.5528451092878,356.9341715695946 620.536446101365,331.4718918505615 618.8761966751758,305.9864855711064 613.6058947212738,280.9967621092361" stroke="#850080" stroke-linecap="round" stroke-width="1" /><polyline clip-path="url(#border_clip)" fill="none" points="613.6058947212738,280.9967621092361 591.0749711329531,293.0225611946736 570.4848295118036,308.13243973181136 552.2546257641663,326.0188041669247 536.7554742667771,346.31753970013045 524.3028930482607,368.615422612692 515.1503807519472,392.458532310294 509.4842561345236,417.36149183734375 507.4198651534466,442.81734875207553 508.9992328558789,468.30789521633494 514.1902078699194,493.31421721277536 522.8871169138179,517.327258137827" stroke="#e400dc" stroke-linecap="round" stroke-width="1" /><polyline clip-path="url(#border_clip)" fill="none" points="522.8871169138179,517.327258137827 541.1839784286093,534.9403137954233 561.8012034424851,549.7701790549681 584.3190847093299,561.514960625577 608.2792231027581,569.9355686236258 633.1938593004131,574.8605837533022 658.5558031571882,576.1897469091369 683.8487586339659,573.8960001622671 708.5578340960997,568.0260375818398 732.1800240222699,558.6993546784181 754.2344487463503,546.1058158199833 774.2721437806675,530.5017891409259" stroke="#850080" stroke-linecap="round" stroke-width="1" /><polyline clip-path="url(#border_clip)" fill="none" points="774.2721437806675,530.5017891409259 753.7020824911333,515.6065734850907 731.2215845588413,503.7903945931961 707.2882880932907,495.29379579243493 682.3894059925922,490.28974333222317 657.0318076938693,488.88010529015503 631.7317007732092,491.09357783170657 607.0041224480328,496.8851010390596 583.3524549045936,506.13677620108604 561.2581778882989,518.6602658911152 541.1710671645669,534.2006279738199 523.500038381289,552.4415054919" stroke="#e400dc" stroke-linecap="round" stroke-width="1" /><polyline clip-path="url(#border_clip)" fill="none" points="523.500038381289,552.4415054919 515.734219665993,576.47190611914 511.4673283667406,601.3629031514982 510.7862260856864,626.6077876691038 513.7047781011356,651.6926466234136 520.163571110463,676.1068246248774 530.0311227136192,699.3533194140612 543.1065580156334,720.9588993944121 559.123698860198,740.4837372628779 577.7564824493379,757.5303636254395 598.6255990416887,771.7517583277661 621.3062136049928,782.8584147848343" stroke="#850080" stroke-linecap="round" stroke-width="1" /><polyline clip-path="url(#border_clip)" fill="none" points="621.3062136049928,782.8584147848343 625.6520705337805,757.9810832925097 626.4132794972402,732.7384872386477 623.5743444760213,707.6444930852692 617.1930580003434,683.2099421882335 607.3993246607406,659.9322515403783 594.3925166252126,638.2852877959771 578.4374149968255,618.7097207121775 559.8588196340198,601.6040523835318 539.0349371621375,587.3165048885371 516.3896817771878,576.1379314923072 492.3840455752843,568.2958957128452" stroke="#e400dc" stroke-linecap="round" stroke-width="1" /><polyline clip-path="url(#border_clip)" fill="none" points="492.3840455752843,568.2958957128452 467.5226118515146,571.8301772227202 443.4172123773158,578.866635762478 420.5585635717508,589.2620293277201 399.4120016056012,602.8047376832976 380.4080094988487,619.2190703410369 363.93345372779913,638.1708788230528 350.32370873925544,659.2743589611543 339.85582969392067,682.0999047571408 332.74291242228753,706.1828539220446 329.1297554080469,731.0329470603585 329.0899121085242,756.1443079375376" stroke="#850080" stroke-linecap="round" stroke-width="1" /><polyline clip-path="url(#border_clip)" fill="none" points="329.0899121085242,756.1443079375376 353.21751915091295,749.1843789867145 376.10904077971685,738.861575583063 397.2984716282705,725.3860402353746 416.3544559897699,709.0320959830933 432.88906897553613,690.1326619703149 446.5657135470652,669.0724761720724 457.10597266106686,646.2802632386571 464.2952770375774,622.2200068980792 467.9872731717329,597.3815045853829 468.10680266907946,572.2703965793291 464.65143225374584,547.3978726244654" stroke="#e400dc" stroke-linecap="round" stroke-width="1" /><polyline clip-path="url(#border_clip)" fill="none" points="464.65143225374584,547.3978726244654 450.6562781714571,526.7200500358599 433.86081360083915,508.24441595607885 414.60694576642953,492.3470810156577 393.286627893767,479.3516691098551 370.33388017201935,469.5227293493999 346.21595435454276,463.06035060349336 321.4238218606263,460.09608826744073 296.46217901323985,460.69028617417734 271.83917287732254,464.8308481678473 248.05605685091538,472.4334843466543 225.59698659147313,483.3434269621901" stroke="#850080" stroke-linecap="round" stroke-width="1" /><polyline clip-path="url(#border_clip)" fill="none" points="225.59698659147313,483.3434269621901 242.3337374870402,501.87226541074324 261.5370610380901,517.8306190033461 282.8160329549355,530.8936216809449 305.7374747328373,540.7953483796125 329.834771917177,547.3342284979859 354.6173730281483,550.3771492934284 379.5807757742516,549.8621656736034 404.2167972640853,545.7997612199207 428.02391914453557,538.27263477205 450.5174970681867,527.4340169180299 471.2396266546353,513.5045506613754" stroke="#e400dc" stroke-linecap="round" stroke-width="1" /><polyline clip-path="url(#border_clip)" fill="none" points="471.2396266546353,513.5045506613754 483.61851570265577,491.98490481943514 492.80884059135735,468.9225983505268 498.62351280871457,444.7871133081575 500.94416239651196,420.06977856679845 499.72354762134285,395.27376778287646 494.98651668006727,370.90385623016175 486.82950186218045,347.4561450308461 475.4185564664863,325.40796196733214 460.98597443479184,305.2081444650835 443.8255615171329,287.26790255698256 424.28665423396853,271.95244783289274" stroke="#850080" stroke-linecap="round" stroke-width="1" /><polyline clip-path="url(#border_clip)" fill="none" points="424.28665423396853,271.95244783289274 415.02319152660436,294.9854743360471 409.13195895453157,319.10238603733023 406.73288502400584,343.8122321619343 407.87480796189465,368.6119915000743 412.53448151021644,392.9968124682259 420.6170481529163,416.47029043149445 431.95797014134627,438.55457307046834 446.32637900834027,458.80008807643014 463.4297753844359,476.79469514710263 482.9199834415381,492.1720759746886 504.4002387487229,504.6191914302427" stroke="#e400dc" stroke-linecap="round" stroke-width="1" /></svg>